# xmcd
#
# Track frame offsets:
#	150
#	23062
#	52688
#	78953
#	122730
#	141176
#	174544
#	260647
#	297876
#
# Disc length: 4154 seconds
#
# Revision: 0
# Processed by: cddbd v1.5.2PL0 Copyright (c) Steve Scherf et al.
# Submitted via: EasyCDDAExtractor 2011.0.0.0
#
DISCID=75103809
DTITLE=Joe Bonamassa - Piazza Blues Bellinzona
DYEAR=2007
DGENRE=Carlos
TTITLE0=Bridge To Better Days
TTITLE1=Walk In My Shadow
TTITLE2=So Many Roads
TTITLE3=Mountain Time
TTITLE4=Another Kind Of Love
TTITLE5=Sloe Gin
TTITLE6=Django - Just Got Paid - Bazed And Confused - Drum Solo
TTITLE7=Asking Around For You
TTITLE8=Los Endos
EXTD=
EXTT0=
EXTT1=
EXTT2=
EXTT3=
EXTT4=
EXTT5=
EXTT6=
EXTT7=
EXTT8=
PLAYORDER=
